<svg width="71" height="71" viewBox="0 0 71 71" fill="none" xmlns="http://www.w3.org/2000/svg">
<path d="M16.9186 66.3792C20.1078 67.5077 24.1072 67.8525 27.9707 68.2031C29.6518 68.348 31.3328 68.5189 32.9075 68.729L33.0553 69.0086C33.2142 69.2901 33.4289 69.5377 33.6869 69.7368C33.9449 69.9358 34.2409 70.0822 34.5575 70.1675C35.1936 70.3427 35.8744 70.2673 36.4545 69.9574C36.742 69.8016 36.9947 69.5909 37.1979 69.3379C37.401 69.0849 37.5504 68.7946 37.6373 68.4841C37.816 67.8609 37.7391 67.1939 37.4229 66.6255C37.0933 66.064 36.5552 65.6488 35.9207 65.4666C35.2852 65.2914 34.6049 65.3668 34.0253 65.6766C33.8642 65.7407 33.7179 65.8358 33.595 65.9562C33.5031 66.0294 33.4193 66.112 33.3451 66.2025C32.3442 66.0967 31.1628 66.0272 29.875 65.9562C26.3442 65.7159 22.8322 65.2592 19.3597 64.5887C11.8842 63.1168 9.66639 57.8915 11.6713 50.6685C8.59445 55.5432 9.27457 63.6775 16.929 66.343L16.9186 66.3792ZM35.0528 68.6971C34.9437 68.678 34.8398 68.6372 34.7475 68.5772C34.6552 68.5171 34.5764 68.4391 34.5161 68.348C34.4476 68.2454 34.4025 68.1294 34.3842 68.0081C34.3658 67.8868 34.3745 67.7631 34.4097 67.6454C34.4294 67.5384 34.4713 67.4365 34.5329 67.346C34.5944 67.2556 34.6743 67.1785 34.7675 67.1195C34.9665 66.988 35.2093 66.9361 35.4461 66.9746C35.5599 66.9939 35.6675 67.0388 35.7606 67.1056C35.8537 67.1725 35.9298 67.2595 35.9828 67.36C36.0513 67.4557 36.0967 67.5655 36.1154 67.681C36.1341 67.7964 36.1257 67.9146 36.0908 68.0264C36.0711 68.1334 36.0291 68.2352 35.9676 68.3257C35.906 68.4161 35.8262 68.4933 35.733 68.5522C35.5851 68.6209 35.4284 68.6696 35.2672 68.6971H35.0528ZM16.203 62.0332C18.8496 63.224 22.4261 63.6456 26.0042 64.0309H26.433C26.5853 64.2891 26.7915 64.5129 27.0381 64.6876C27.2848 64.8624 27.5663 64.9842 27.8642 65.045C28.4364 65.1899 29.047 65.045 29.5808 64.7654C29.8356 64.6096 30.0556 64.4049 30.2276 64.1637C30.3996 63.9225 30.5201 63.6497 30.5818 63.3617C30.6498 63.0765 30.6596 62.781 30.6107 62.4921C30.5617 62.2032 30.4549 61.9266 30.2964 61.6783C30.1414 61.4256 29.9339 61.2076 29.6873 61.0387C29.4407 60.8697 29.1606 60.7535 28.8652 60.6976C28.5744 60.6308 28.273 60.6212 27.9783 60.6692C27.6837 60.7172 27.4017 60.8218 27.1486 60.9772C26.8499 61.1707 26.5944 61.4215 26.3975 61.7145C25.574 61.5697 24.7519 61.4683 23.9653 61.3277C21.5996 60.9772 19.2429 60.6266 17.3474 59.8907C11.2366 57.5424 13.1276 51.4058 14.1937 47.0236C11.553 51.4406 9.8719 59.191 16.203 62.0318V62.0332ZM28.1496 63.7514C28.0405 63.7317 27.9366 63.6905 27.8444 63.6302C27.7521 63.5699 27.6733 63.4919 27.6129 63.4008C27.5425 63.3045 27.4957 63.1937 27.4762 63.0768C27.4567 62.96 27.465 62.8403 27.5005 62.7271C27.5202 62.6155 27.5659 62.5099 27.6342 62.4184C27.7024 62.3269 27.7912 62.2521 27.8938 62.1998C28.0939 62.0696 28.3367 62.0179 28.5739 62.055C28.6829 62.0741 28.7868 62.1152 28.8789 62.1755C28.971 62.2358 29.0494 62.3141 29.1091 62.4055C29.1791 62.5072 29.2251 62.6229 29.2438 62.7442C29.2625 62.8655 29.2533 62.9893 29.2171 63.1067C29.1974 63.2137 29.1554 63.3156 29.0939 63.406C29.0323 63.4965 28.9525 63.5736 28.8593 63.6326C28.7119 63.7012 28.5557 63.7499 28.395 63.7774H28.2161L28.1496 63.7514ZM13.4544 39.0632C13.1519 39.0582 12.8524 39.1221 12.5794 39.2498C12.3065 39.3775 12.0675 39.5656 11.8812 39.7991C9.62203 42.4647 6.93849 46.3572 5.61815 50.3193C3.75816 55.8938 5.29731 60.2775 10.6984 62.9778C4.93951 56.3501 11.556 49.0575 15.9206 43.6569C17.6017 41.5882 15.4194 39.0284 13.4514 39.0284L13.4544 39.0632ZM2.46887 41.2014C-1.64441 48.8113 -0.536989 54.422 5.18642 59.12C1.82423 55.1941 3.89862 48.7417 7.29629 43.6569C8.51313 41.8331 6.65313 39.7296 4.75765 39.7296C3.89862 39.7296 3.07655 40.1497 2.46887 41.2377V41.2014ZM11.0163 30.4016C11.0163 30.4016 10.7664 30.6117 10.623 30.7522C8.83545 32.6456 8.15532 33.5221 6.5452 35.556C4.54326 38.152 8.69203 41.4477 10.7664 38.7431C12.0971 37.2698 13.1986 35.9022 14.4864 34.2899C16.1675 32.5008 14.4154 29.9439 12.4165 29.9439C11.903 29.9492 11.4035 30.1084 10.9852 30.4002L11.0163 30.4016ZM19.2074 31.9445L18.5642 32.6109L17.7776 33.4525L16.9541 34.3637L16.2385 35.1707C15.9987 35.4349 15.8232 35.7489 15.7252 36.0891C15.6271 36.4294 15.609 36.787 15.6722 37.135C15.7553 37.546 15.9395 37.9309 16.2089 38.2563C16.4886 38.5883 16.8428 38.8526 17.2439 39.0284C17.5854 39.1747 17.957 39.2412 18.3293 39.2229C18.7015 39.2045 19.0644 39.1018 19.3892 38.9227C19.5282 38.854 19.66 38.772 19.7825 38.6779L20.1048 38.3621L20.7495 37.6261L21.4991 36.8192L22.2517 36.0123L22.8948 35.3112C23.6814 34.4695 23.7169 33.5221 23.3591 32.7514C23.2203 32.4415 23.0127 32.1658 22.7514 31.9445C22.4904 31.706 22.1873 31.516 21.8569 31.3838C21.5601 31.2714 21.2451 31.212 20.9269 31.2086C20.6015 31.2112 20.2803 31.2812 19.9845 31.414C19.6887 31.5469 19.4248 31.7395 19.2103 31.9792L19.2074 31.9445ZM23.9653 26.8249C23.9653 26.8249 23.4641 27.2812 23.3561 27.4217C23.1647 27.6041 23.0124 27.8221 22.908 28.0629C22.8037 28.3037 22.7494 28.5625 22.7485 28.8241C22.7435 29.347 22.9491 29.8509 23.3207 30.2264L23.7509 30.6479C23.9318 30.8412 24.1512 30.996 24.3956 31.1028C24.9025 31.2902 25.4618 31.2902 25.9687 31.1028C26.2183 31.0051 26.4397 30.8489 26.6134 30.6479C26.8793 30.3908 27.1189 30.1089 27.329 29.8062C27.5697 29.478 27.7065 29.0875 27.7223 28.6835C27.7291 28.4193 27.6787 28.1566 27.5744 27.9128C27.4747 27.677 27.329 27.4625 27.1456 27.2812L26.7612 26.9306C26.5852 26.7515 26.3739 26.6093 26.14 26.5127C25.9062 26.416 25.6547 26.367 25.401 26.3686H25.3655C24.8606 26.3686 24.3747 26.5571 24.0067 26.8959L23.9653 26.8249ZM18.3143 23.1076L17.6697 23.774L16.855 24.5809L15.996 25.4501L15.2449 26.2223C14.9936 26.4741 14.8073 26.7811 14.7016 27.1178C14.5959 27.4544 14.5738 27.811 14.6372 28.1577C14.7129 28.5758 14.8837 28.972 15.137 29.3166C15.3933 29.6669 15.739 29.9451 16.1394 30.1235C16.5423 30.3244 16.9956 30.408 17.4455 30.3644C17.8954 30.3207 18.3232 30.1517 18.6781 29.8772C18.8112 29.8005 18.9221 29.6918 19.0004 29.5614L19.6805 28.8603L20.4316 28.0534L21.2182 27.2479L21.8983 26.5815C22.7204 25.7746 22.7854 24.8286 22.4335 24.0565C22.2862 23.7498 22.0934 23.4662 21.8613 23.2148C21.6155 22.9661 21.3248 22.7642 21.0038 22.6194C20.7008 22.483 20.3718 22.411 20.0383 22.4079C19.73 22.4101 19.4252 22.4734 19.1425 22.5939C18.8597 22.7144 18.6046 22.8896 18.3927 23.1091L18.3143 23.1076ZM24.3586 17.2869C23.9822 17.6193 23.6239 17.9708 23.2852 18.3401L22.6775 18.9775C22.5684 19.0831 22.4721 19.2007 22.3907 19.3281C20.9609 21.5373 24.2152 24.0623 26.0752 22.0979C26.6474 21.572 27.1101 21.0462 27.5774 20.5551C27.6853 20.4508 27.7918 20.3103 27.8997 20.2045C29.0441 18.5921 27.5064 16.6987 25.8608 16.6987C25.302 16.7006 24.7648 16.9109 24.3586 17.2869Z" fill="#6D2EB1"/>
<path fill-rule="evenodd" clip-rule="evenodd" d="M30.8335 1.05173C32.7635 0.350577 34.587 0 36.3041 0H36.3395C40.8461 0 44.6741 2.45404 48.0422 7.71414C50.1476 11.0461 44.9254 13.3944 43.4587 10.5897C40.6332 5.15435 35.9832 0.182532 30.8335 1.05173ZM24.6428 3.82144C32.9067 2.32694 36.1709 10.5544 38.6815 16.8825L38.6818 16.883C38.8213 17.2347 38.9585 17.5805 39.0941 17.9184C40.3819 21.075 45.5996 19.2222 44.5306 16.4103C43.2783 13.1494 41.2039 8.94102 38.3784 5.85537C35.9817 3.26081 33.3706 1.89327 30.5806 1.89327C28.6822 1.89327 26.6817 2.52489 24.6428 3.82144ZM25.1796 4.83878C22.9618 4.83878 20.6375 5.57615 18.4907 7.39857C15.9166 9.53825 13.5908 12.7586 11.3376 15.8848L10.9988 16.348L10.9987 16.3482C10.1178 17.553 9.26157 18.7242 8.40414 19.8122H8.0833C7.42299 19.8079 6.78489 20.0455 6.29427 20.4786C6.05585 20.6994 5.86618 20.9658 5.73699 21.2614C5.6078 21.5569 5.54184 21.8752 5.54318 22.1967C5.53893 22.5206 5.59995 22.8422 5.72274 23.143C5.84554 23.4438 6.0277 23.7179 6.25879 23.9496C6.48605 24.1805 6.75809 24.3647 7.05894 24.4913C7.3598 24.6179 7.68343 24.6844 8.01085 24.6869C8.34147 24.6911 8.66967 24.6313 8.97666 24.511C9.28365 24.3907 9.5634 24.2122 9.79988 23.9858C10.0352 23.7622 10.2227 23.4951 10.3517 23.1999C10.4806 22.9047 10.5484 22.5873 10.551 22.2662C10.5568 22.0902 10.5449 21.9141 10.5155 21.7403C10.4958 21.6193 10.4594 21.5013 10.4076 21.3898C10.7978 20.8726 11.2032 20.2825 11.6329 19.6571L11.633 19.657L11.6332 19.6567C11.8726 19.3083 12.1195 18.949 12.3755 18.5852C14.3464 15.7114 16.4963 12.9595 18.813 10.3452C23.8563 4.73448 29.5797 5.4704 34.9808 10.7653C33.1563 7.46955 29.3299 4.83878 25.1796 4.83878ZM8.69098 22.8283C8.61816 22.9172 8.52554 22.9886 8.42021 23.0371C8.31489 23.0856 8.19965 23.1098 8.0833 23.1079H8.01085C7.78467 23.1013 7.56866 23.0143 7.40317 22.8631H7.43866C7.43866 22.8631 7.1533 22.5125 7.1533 22.2662C7.14495 22.1444 7.16289 22.0222 7.20594 21.9077C7.249 21.7931 7.3162 21.6887 7.40317 21.6013C7.47592 21.5122 7.56849 21.4405 7.6738 21.3918C7.77912 21.3431 7.8944 21.3186 8.01085 21.3202C8.12973 21.3152 8.24838 21.3344 8.35932 21.3765C8.47027 21.4187 8.57111 21.4829 8.65549 21.5651C8.74297 21.6454 8.81333 21.742 8.86251 21.8492C8.91169 21.9563 8.9387 22.072 8.942 22.1894C8.9453 22.3069 8.92482 22.4238 8.88173 22.5335C8.83865 22.6431 8.77381 22.7433 8.69098 22.8283ZM47.9949 21.3895C47.2128 19.4671 46.5696 17.849 45.925 15.9903L45.8836 16.028C45.026 14.0288 46.8136 12.5208 48.5302 12.5208C49.029 12.5075 49.5199 12.6451 49.9361 12.9149C50.3523 13.1848 50.6734 13.5737 50.8559 14.0288L51.006 14.3854L51.006 14.3854C51.9021 16.5132 52.3276 17.5236 53.0737 19.8843C53.1463 20.0381 53.1827 20.206 53.1802 20.3754C53.4655 23.2843 48.9249 24.2651 47.9949 21.3895ZM43.6717 20.8986C43.243 20.967 42.8373 21.1354 42.4889 21.3897C42.1892 21.6049 41.9433 21.884 41.7699 22.206C41.5965 22.528 41.5001 22.8844 41.4879 23.2483V23.7046C41.5064 23.8483 41.5421 23.9893 41.5944 24.1247L41.9167 25.0374L42.2745 26.0515L42.6323 27.1032L42.9177 27.9724C43.24 29.0589 44.062 29.55 44.9566 29.621C45.305 29.638 45.6541 29.6023 45.9915 29.5152C46.3247 29.4133 46.6387 29.2592 46.9215 29.0589C47.6371 28.4983 48.0304 27.6218 47.7081 26.5353L47.4213 25.6574L47.0649 24.5709L46.6702 23.412L46.3139 22.4298C46.2081 22.0965 46.0233 21.7925 45.7745 21.5427C45.5257 21.293 45.2201 21.1045 44.8826 20.9927C44.62 20.8937 44.3405 20.8445 44.0591 20.8479H43.6303L43.6717 20.8986ZM50.8974 24.8273C51.2554 24.5737 51.6749 24.4163 52.1142 24.3709L52.0432 24.3477H52.3922C52.7104 24.3512 53.0254 24.4106 53.3222 24.523C53.6547 24.6564 53.9526 24.8609 54.194 25.1216C54.4355 25.3823 54.6145 25.6925 54.7179 26.0296L55.0388 27.0437L55.3966 28.2026L55.7189 29.2906L55.9688 30.1598C56.1006 30.6136 56.0861 31.0963 55.9273 31.5418C55.7685 31.9873 55.4732 32.3738 55.0816 32.6486C54.7983 32.849 54.4838 33.0031 54.1502 33.1049C53.8109 33.1805 53.4618 33.204 53.1152 33.1745C52.6451 33.1253 52.2026 32.9326 51.8505 32.6234C51.4984 32.3143 51.2544 31.9045 51.1532 31.452L50.9033 30.5408L50.581 29.4891L50.2601 28.4373L49.9733 27.5247C49.9198 27.3898 49.8826 27.2493 49.8624 27.106V26.6497C49.8766 26.2876 49.9777 25.9338 50.1575 25.6172C50.3373 25.3006 50.5908 25.0299 50.8974 24.8273ZM47.1772 30.8564L46.605 31.0013C46.3492 31.0632 46.1068 31.1697 45.8894 31.3156C45.6664 31.4719 45.4829 31.6761 45.3527 31.9125C45.2222 32.1399 45.1374 32.3897 45.1028 32.6484C45.0909 32.9078 45.1153 33.1676 45.1753 33.4205C45.2817 33.7711 45.3897 34.1217 45.5316 34.4723C45.7138 34.8455 45.9991 35.1612 46.3552 35.3835C46.5796 35.5277 46.8384 35.6125 47.1062 35.6297C47.3705 35.6414 47.6352 35.6175 47.8928 35.5588L48.3941 35.4139C48.8975 35.2816 49.3316 34.9681 49.6094 34.536C49.8695 34.1031 49.9589 33.592 49.8608 33.0989C49.8451 33.0245 49.8104 32.8993 49.7729 32.7638L49.7729 32.7637L49.7728 32.7635L49.7728 32.7633C49.7221 32.58 49.6661 32.378 49.6449 32.2573C49.5114 31.7445 49.1773 31.3037 48.7149 31.0302C48.3998 30.8522 48.0436 30.7555 47.6799 30.7492C47.5096 30.7378 47.3388 30.762 47.1787 30.8202L47.1772 30.8564ZM55.3328 34.3997C53.9016 34.3997 52.4349 35.6267 52.9672 37.2739C53.1338 37.9597 53.3367 38.6367 53.5748 39.302C53.6134 39.4503 53.6736 39.5923 53.7537 39.7236C54.8996 42.0414 58.6906 40.7376 58.0829 38.1807C58.0406 38.0157 58.0052 37.8765 57.9746 37.756L57.9745 37.7558C57.849 37.2617 57.8037 37.0834 57.6896 36.7422L57.4383 35.9368C57.4383 35.9368 57.3318 35.6557 57.2594 35.5152C57.0822 35.163 56.8068 34.8671 56.465 34.662C56.1232 34.4569 55.7291 34.3509 55.3284 34.3563L55.3328 34.3997ZM26.8963 7.61018H26.9333C31.153 7.61018 35.0519 11.4318 36.9962 14.8042C36.8662 14.6809 36.7345 14.5553 36.6009 14.428L36.5983 14.4255L36.5976 14.4248C33.3134 11.2937 28.96 7.14323 24.0472 11.0174C22.5765 12.1351 21.2286 13.7768 19.8647 15.4378L19.8647 15.4378C19.7312 15.6003 19.5976 15.7631 19.4637 15.9255C19.188 16.2482 18.9231 16.5709 18.6583 16.8934C18.4049 17.2021 18.1516 17.5107 17.8891 17.8189C17.968 17.925 18.0266 18.0443 18.0621 18.1709C18.133 18.3738 18.1695 18.5867 18.17 18.8011C18.1846 19.0964 18.1382 19.3916 18.0336 19.6689C17.9289 19.9463 17.7681 20.2 17.5608 20.4149C17.366 20.6388 17.1252 20.8201 16.8542 20.9469C16.5831 21.0737 16.2879 21.1432 15.9877 21.1508C15.6858 21.1647 15.3842 21.1184 15.1011 21.0148C14.818 20.9113 14.5593 20.7525 14.3406 20.5482C14.1111 20.3575 13.9251 20.1215 13.7949 19.8557C13.6648 19.5899 13.5932 19.3001 13.585 19.0054C13.5705 18.7104 13.6168 18.4156 13.7212 18.1385C13.8256 17.8615 13.986 17.6079 14.1927 17.393C14.3911 17.1715 14.6337 16.9922 14.9055 16.8661C15.1774 16.7401 15.4727 16.6699 15.7733 16.66L16.0232 16.3065C18.17 13.4686 20.3464 10.6248 22.7121 8.97772C24.1078 8.03029 25.502 7.61018 26.8963 7.61018ZM16.2537 19.7059C16.3591 19.6572 16.4516 19.5856 16.5244 19.4965C16.6115 19.4089 16.6789 19.3042 16.7219 19.1894C16.765 19.0746 16.7828 18.9521 16.7743 18.8301C16.7762 18.7161 16.7515 18.6032 16.702 18.5C16.6525 18.3968 16.5796 18.306 16.4889 18.2347C16.4046 18.1523 16.3038 18.0879 16.1929 18.0455C16.0819 18.0031 15.9632 17.9837 15.8443 17.9884C15.6164 18.0167 15.4037 18.1151 15.2366 18.2694C15.1494 18.357 15.0821 18.4617 15.039 18.5765C14.996 18.6913 14.9781 18.8138 14.9867 18.9358C14.9867 19.1807 15.2721 19.5312 15.2721 19.5312H15.2366C15.3137 19.6129 15.4079 19.6772 15.5128 19.7197C15.6177 19.7622 15.7308 19.7819 15.8443 19.7775H15.9167C16.0331 19.7791 16.1484 19.7546 16.2537 19.7059Z" fill="#6D2EB1"/>
<path fill-rule="evenodd" clip-rule="evenodd" d="M66.3981 28.0296C67.9699 31.4199 69.5837 34.901 70.1764 38.0815C71.6431 45.9362 64.7753 50.5589 58.9425 50.3894C66.347 48.4612 69.8526 43.9733 67.4204 36.8893C66.2811 33.6024 64.9213 30.3929 63.35 27.2817C62.7778 26.1952 62.2411 25.1421 61.8478 24.2309C61.7044 24.1961 61.5965 24.1613 61.49 24.1251C61.3225 24.0851 61.1643 24.0138 61.0243 23.915C60.7396 23.7523 60.4914 23.5349 60.2947 23.2757C60.098 23.0165 59.9569 22.721 59.8799 22.407C59.72 21.7755 59.8216 21.1076 60.1626 20.5492C60.5037 19.9909 61.0564 19.5874 61.7 19.4271V19.3923C61.8963 19.3318 62.1024 19.3077 62.3077 19.3213C62.8662 19.3223 63.4085 19.5056 63.849 19.8421C64.2894 20.1787 64.6029 20.6494 64.7399 21.18C64.8936 21.8124 64.7914 22.4785 64.4545 23.0386L64.2756 23.3196C64.8833 24.7567 65.5634 26.2648 66.279 27.7728C66.3187 27.8584 66.3583 27.944 66.3981 28.0296ZM62.63 22.5475C62.8578 22.4811 63.0503 22.3304 63.1667 22.1274C63.2161 22.03 63.2447 21.9238 63.2508 21.8152C63.2569 21.7066 63.2403 21.5979 63.2022 21.4958C63.1245 21.2778 62.9733 21.0923 62.7734 20.9699C62.5688 20.8869 62.3414 20.8746 62.1288 20.9351C62.0113 20.969 61.9026 21.0271 61.81 21.1055C61.7175 21.184 61.6431 21.281 61.5921 21.39C61.5098 21.6031 61.4974 21.8361 61.5566 22.0564C61.6342 22.2744 61.7855 22.4599 61.9853 22.5823V22.478C62.0405 22.5206 62.1039 22.5519 62.1718 22.5698C62.2397 22.5878 62.3105 22.592 62.3801 22.5823C62.4156 22.5823 62.4603 22.5736 62.505 22.5649C62.5498 22.5562 62.5945 22.5475 62.63 22.5475ZM63.7119 31.7818L63.7119 31.7818L63.6308 31.5945L63.4519 31.2091C63.5892 30.9521 63.673 30.671 63.6984 30.382C63.7238 30.093 63.6903 29.8019 63.5998 29.5258C63.4018 28.9675 63.0091 28.4955 62.4909 28.193C62.1592 28.0256 61.7904 27.9415 61.4175 27.9482C61.1869 27.9461 60.9576 27.9813 60.7388 28.0525L60.7033 27.9829C60.1281 28.1672 59.6432 28.5545 59.3431 29.0694C59.0651 29.6008 59.012 30.2181 59.1952 30.7876C59.3829 31.3514 59.7783 31.8266 60.3041 32.1203C60.4916 32.2268 60.6977 32.298 60.9118 32.3304C60.9915 32.3304 61.0683 32.3409 61.1389 32.3506C61.1994 32.3589 61.2554 32.3666 61.3051 32.3666C61.449 32.7553 61.6024 33.1352 61.7558 33.5154C61.9066 33.8889 62.0575 34.2627 62.1996 34.6453C62.2577 34.7926 62.316 34.9399 62.3743 35.0871L62.3743 35.0872C63.1758 37.1121 63.9732 39.127 64.2696 40.9919C65.2289 47.075 59.4201 48.713 55.0303 49.9509C54.8401 50.0045 54.6526 50.0574 54.4683 50.1098C59.6964 50.1446 67.3508 47.6891 66.7431 40.9224C66.4619 38.1366 65.0815 34.9467 63.7119 31.7818ZM62.2366 30.4732C62.1201 30.6762 61.9276 30.8269 61.6999 30.8933C61.6681 30.8933 61.6289 30.9003 61.5856 30.908C61.5322 30.9175 61.4726 30.9281 61.413 30.9281C61.2732 30.943 61.1328 30.9058 61.0197 30.8238V30.8933C60.8199 30.771 60.6686 30.5854 60.591 30.3674C60.5501 30.2643 60.5352 30.1531 60.5476 30.0431C60.5599 29.9332 60.5992 29.8278 60.6619 29.7358C60.713 29.6268 60.7873 29.5298 60.8799 29.4513C60.9725 29.3729 61.0812 29.3148 61.1986 29.2809C61.4113 29.2204 61.6387 29.2327 61.8433 29.3157C62.0431 29.4381 62.1944 29.6236 62.272 29.8416C62.3107 29.9436 62.3275 30.0523 62.3214 30.161C62.3153 30.2697 62.2864 30.3759 62.2366 30.4732ZM49.2166 55.6798C46.2122 55.1931 47.1777 49.8287 50.6123 50.3198L50.6197 50.2806C50.9919 50.3353 51.3724 50.3926 51.7595 50.451C58.5803 51.4791 67.4748 52.8199 70.2842 45.0553C70.5711 51.0166 67.4587 54.4876 61.6289 55.7146C57.4786 56.5925 52.7222 56.2767 49.2166 55.6798ZM54.9045 57.6834C53.2944 57.6138 52.3644 58.9872 52.3289 60.3489C52.3289 61.7164 53.151 63.084 55.1544 63.013C63.9177 62.6972 68.3533 58.9452 69.6441 51.7569C67.855 56.5969 61.1307 58.0339 54.9075 57.7181L54.9045 57.6834ZM41.3835 61.1195C41.3835 61.1195 41.7058 61.2253 41.8847 61.2644C44.4588 61.8598 45.5677 62.0003 48.1803 62.3161C51.47 62.7377 52.2936 57.5471 48.8944 57.127C46.9635 56.7402 45.1744 56.4954 43.0646 56.2143C42.8644 56.1741 42.6611 56.1508 42.4569 56.1448C39.8813 56.1405 38.8433 59.9982 41.3835 61.1195ZM29.6512 55.5799C29.7558 55.2533 29.913 54.9451 30.117 54.6672L30.0815 54.6976C30.287 54.412 30.5604 54.1797 30.878 54.0207C31.1956 53.8617 31.5479 53.7808 31.9045 53.785C32.1471 53.7852 32.3883 53.8209 32.6201 53.8907L33.5501 54.1384L34.6235 54.3847L35.697 54.6295L36.6624 54.8396C36.8102 54.8727 36.954 54.9213 37.0912 54.9845C37.1649 55.0179 37.2276 55.0541 37.2912 55.0908C37.3515 55.1255 37.4126 55.1607 37.4845 55.1945C37.7903 55.393 38.0458 55.6572 38.2318 55.9669C38.4178 56.2767 38.5293 56.6239 38.5579 56.9822C38.5949 57.4024 38.5211 57.8249 38.3435 58.2092C38.1799 58.6014 37.9223 58.9492 37.5924 59.2233C37.0912 59.6434 36.4111 59.8201 35.589 59.6434L34.554 59.3985L33.3712 59.1175L32.2268 58.8379L31.3323 58.5916C30.8654 58.4768 30.4463 58.223 30.1326 57.8653C29.8189 57.5076 29.6259 57.0634 29.5803 56.5939C29.5322 56.2547 29.5563 55.9095 29.6512 55.5799ZM23.1782 56.3536C23.9014 56.5613 24.1409 56.6185 24.4562 56.6939L24.4566 56.694C24.5151 56.708 24.5762 56.7226 24.6434 56.7389L25.5025 56.9504C25.6553 56.9845 25.8105 57.0078 25.9667 57.02C28.6148 57.1257 29.2579 53.0926 26.5759 52.4972C25.8831 52.2912 25.178 52.1277 24.4645 52.0076C24.313 51.9669 24.1572 51.9431 24.0003 51.9366H23.8214C21.3537 51.9366 20.6736 55.6539 23.1782 56.3898V56.3536ZM37.3057 49.4781C37.1272 49.7645 36.9833 50.0703 36.8769 50.3893C36.794 50.7213 36.7819 51.0665 36.8414 51.4033C36.9892 52.2725 37.557 53.0867 38.6659 53.333L39.5944 53.543L40.7403 53.7878L41.9557 54.0341L42.9906 54.2442C43.3405 54.3171 43.7027 54.3108 44.0496 54.2257C44.3966 54.1406 44.7191 53.9789 44.9926 53.7531C45.3126 53.4778 45.5584 53.1295 45.7082 52.739C45.8573 52.3353 45.9183 51.9054 45.8871 51.4772C45.8556 51.1159 45.7349 50.7674 45.5356 50.4618C45.3363 50.1562 45.0642 49.9027 44.7427 49.7229C44.6708 49.6891 44.6097 49.6539 44.5495 49.6191L44.5494 49.6191L44.5494 49.6191C44.4858 49.5824 44.423 49.5463 44.3494 49.5128C44.2111 49.4615 44.0672 49.426 43.9206 49.4071L42.9537 49.2332L41.8462 49.0217L40.7373 48.8117L39.8073 48.6016C39.6064 48.5628 39.4028 48.5391 39.1982 48.5306C38.8283 48.5238 38.4629 48.6107 38.1374 48.7827C37.8118 48.9548 37.537 49.2063 37.3397 49.5128L37.3057 49.4781ZM30.9391 48.2857C31.1176 48.0953 31.3221 47.9301 31.5468 47.7946H31.5098C31.8279 47.628 32.1842 47.5437 32.5448 47.5498H32.7237C33.097 47.5997 33.4672 47.6698 33.8326 47.7598C34.0874 47.8407 34.3281 47.9589 34.5468 48.1104C34.7624 48.2739 34.9445 48.4759 35.0835 48.7058C35.2305 48.9264 35.317 49.1803 35.3348 49.4432C35.3629 49.7022 35.3383 49.9642 35.2624 50.2138L35.0835 50.7745C34.9365 51.281 34.5903 51.7097 34.121 51.9664C33.6516 52.2231 33.0975 52.2868 32.5803 52.1435C32.3117 52.0449 32.0372 51.9626 31.7582 51.8972C31.2743 51.7236 30.8684 51.388 30.6124 50.9498C30.3576 50.5013 30.2934 49.9725 30.4335 49.4779L30.5813 48.9868C30.6567 48.734 30.7779 48.4965 30.9391 48.2857Z" fill="#6D2EB1"/>
</svg>
